<?xml version="1.0" encoding="UTF-8"?>
<svg width="78px" height="40px" viewBox="0 0 78 40" version="1.1" xmlns="http://www.w3.org/2000/svg" xmlns:xlink="http://www.w3.org/1999/xlink">
    <!-- Generator: Sketch 55.2 (78181) - https://sketchapp.com -->
    <title>Edit</title>
    <desc>Created with Sketch.</desc>
    <g id="New-Design---1366x768" stroke="none" stroke-width="1" fill="none" fill-rule="evenodd">
        <g id="Mapp-new-fields" transform="translate(-93.000000, -1424.000000)">
            <g id="Group-3" transform="translate(61.000000, 1196.000000)">
                <g id="Table-(new)">
                    <g id="Edit" transform="translate(32.000000, 228.000000)">
                        <g id="Group-2">
                            <g id="Group" fill-rule="nonzero">
                                <rect id="Dropdown" fill="#4D91FC" x="0" y="0" width="78" height="40" rx="3"></rect>
                                <g id="plus-(2)" transform="translate(18.000000, 13.000000)" fill="#A6C8FD">
                                    <path d="M13.4166667,5.83333333 L8.45833333,5.83333333 C8.28333333,5.83333333 8.16666667,5.71666667 8.16666667,5.54166667 L8.16666667,0.583333333 C8.16666667,0.233333333 7.93333333,0 7.58333333,0 L6.41666667,0 C6.06666667,0 5.83333333,0.233333333 5.83333333,0.583333333 L5.83333333,5.54166667 C5.83333333,5.71666667 5.71666667,5.83333333 5.54166667,5.83333333 L0.583333333,5.83333333 C0.233333333,5.83333333 0,6.06666667 0,6.41666667 L0,7.58333333 C0,7.93333333 0.233333333,8.16666667 0.583333333,8.16666667 L5.54166667,8.16666667 C5.71666667,8.16666667 5.83333333,8.28333333 5.83333333,8.45833333 L5.83333333,13.4166667 C5.83333333,13.7666667 6.06666667,14 6.41666667,14 L7.58333333,14 C7.93333333,14 8.16666667,13.7666667 8.16666667,13.4166667 L8.16666667,8.45833333 C8.16666667,8.28333333 8.28333333,8.16666667 8.45833333,8.16666667 L13.4166667,8.16666667 C13.7666667,8.16666667 14,7.93333333 14,7.58333333 L14,6.41666667 C14,6.06666667 13.7666667,5.83333333 13.4166667,5.83333333 Z" id="Path"></path>
                                </g>
                            </g>
                            <text id="Add" font-family="AvenirNext-DemiBold, Avenir Next" font-size="12" font-weight="500" line-spacing="16" fill="#FFFFFF">
                                <tspan x="40" y="24">Add</tspan>
                            </text>
                        </g>
                    </g>
                </g>
            </g>
        </g>
    </g>
</svg>