<?xml version="1.0" encoding="UTF-8"?>
<svg width="18px" height="12px" viewBox="0 0 18 12" version="1.1" xmlns="http://www.w3.org/2000/svg" xmlns:xlink="http://www.w3.org/1999/xlink">
    <!-- Generator: Sketch 55.2 (78181) - https://sketchapp.com -->
    <title>return</title>
    <desc>Created with Sketch.</desc>
    <g id="New-Design---1366x768" stroke="none" stroke-width="1" fill="none" fill-rule="evenodd">
        <g id="Mapp-new-fields" transform="translate(-103.000000, -1377.000000)" fill="#242C42" fill-rule="nonzero">
            <g id="return" transform="translate(112.000000, 1383.000000) scale(1, -1) translate(-112.000000, -1383.000000) translate(103.000000, 1377.000000)">
                <path d="M0.675596571,11.0853611 C0.404257415,11.0853611 0.184701413,10.672219 0.184701413,10.1614172 C0.184701413,6.59650975 1.72646982,3.69533883 3.62108362,3.69533883 L11.9665335,3.69533883 C12.2378727,3.69533883 12.4574287,4.10848096 12.4574287,4.61906436 C12.4574287,5.1296477 12.2378727,5.54278978 11.9665335,5.54278978 L3.62108362,5.54278978 C2.26763877,5.54278978 1.16649173,7.61483629 1.16649173,10.1614172 C1.16649173,10.672219 0.946935728,11.0853611 0.675596571,11.0853611 Z" id="Path"></path>
                <path d="M11.5337032,9.23769168 C11.3840457,9.23769168 11.2341697,9.2016428 11.0980578,9.12867114 C10.7976504,8.96808971 10.6099777,8.65501058 10.6099777,8.31396626 L10.6099777,0.923943939 C10.6099777,0.582899614 10.7976504,0.270038952 11.0980578,0.109457522 C11.3975913,-0.0519978196 11.7628867,-0.0332086737 12.0462528,0.155337955 L17.5886057,3.85023985 C17.8457545,4.02174516 18,4.31035474 18,4.61884584 C18,4.92733694 17.8457545,5.21616504 17.5886057,5.38745188 L12.0462528,9.08235378 C11.8920073,9.18547545 11.7132922,9.23769168 11.5337032,9.23769168 L11.5337032,9.23769168 Z M12.4574287,2.64970259 L12.4574287,6.58820761 L15.4110344,4.61884584 L12.4574287,2.64970259 Z" id="Shape"></path>
            </g>
        </g>
    </g>
</svg>