<?xml version="1.0" encoding="utf-8"?>
<!-- Generator: Adobe Illustrator 23.0.3, SVG Export Plug-In . SVG Version: 6.00 Build 0)  -->
<svg version="1.1" id="Layer_1" xmlns="http://www.w3.org/2000/svg" xmlns:xlink="http://www.w3.org/1999/xlink" x="0px" y="0px"
	 viewBox="0 0 100 100" style="enable-background:new 0 0 100 100;" xml:space="preserve">
<style type="text/css">
	.st0{fill:#E89B79;}
	.st1{fill:#FFFFFF;}
</style>
<title>Paying Accounts</title>
<circle class="st0" cx="50" cy="50" r="50"/>
<g id="surface1">
	<path class="st1" d="M28.3,31.1c0.2,0,0.4,0.1,0.5,0.3l15,15l2.7-2.7l-15-15c-0.1-0.1-0.2-0.3-0.3-0.5l-0.9-3.8L24,20.8L21,23.9
		l3.6,6.3L28.3,31.1z"/>
	<path class="st1" d="M41.6,65.3l23.8-23.8c0.3-0.3,0.6-0.4,1-0.3c3.1,0.8,6.5,0.1,9-1.9c2.6-2,4-5,4-8.3c0-0.2,0-0.4,0-0.6L73.9,36
		c-0.3,0.3-0.7,0.4-1.1,0.3l-6.3-2.1c-0.3-0.1-0.6-0.3-0.7-0.7l-2.1-6.3c-0.1-0.4,0-0.8,0.3-1.1l5.5-5.5c-3.3-0.2-6.6,1.2-8.7,3.8
		c-2.1,2.6-2.9,6-2.1,9.2c0.1,0.4,0,0.7-0.3,1L34.7,58.4c-0.3,0.3-0.6,0.4-1,0.3c-0.8-0.2-1.7-0.3-2.5-0.3c-4.5,0-8.6,2.8-10,7.1
		c-1.5,4.3-0.1,9,3.5,11.8c3.6,2.8,8.5,3,12.3,0.5c3.8-2.5,5.6-7.1,4.5-11.5C41.3,65.9,41.4,65.5,41.6,65.3z M33.7,73h-5.1l-2.5-4.2
		l2.5-4.2h5.1l2.5,4.2L33.7,73z M37.8,60.7l23.1-23.1l1.5,1.5L39.3,62.2L37.8,60.7z"/>
	<path class="st1" d="M70.8,78.9c2.3,0.9,5,0.3,6.7-1.5c1.8-1.8,2.3-4.4,1.5-6.7L70.8,78.9z"/>
	<path class="st1" d="M77.6,68.4L65.8,56.6c-1.3,1.1-3.2,1-4.4-0.2c-1.2-1.2-1.3-3.1-0.2-4.4l-1.7-1.7l-9,9l1.7,1.7
		c1.3-1.1,3.2-1,4.4,0.2c1.2,1.2,1.3,3.1,0.2,4.4l11.8,11.8c0.1,0.1,0.3,0.2,0.4,0.4l9-9C77.8,68.7,77.7,68.6,77.6,68.4z M71.4,72.7
		L60.9,62.2l1.5-1.5l10.5,10.5L71.4,72.7z"/>
</g>
</svg>
